<svg class="border shadow-md dark:border-slate-700" viewBox="0 0 1188 668.25" xmlns="http://www.w3.org/2000/svg" preserveAspectRatio="none" style="width: 1188px; height: 668.25px;"><rect class="bg" id="bg" x="0" y="0" width="1188" height="668.25" fill="#ffffff"/><g><path d="M 0 -55.6875V -77.9625 H 59.4 V -33.4125 H 118.8 V -55.6875 H 178.2 V -22.275 H 237.6 V -44.55 H 297 V -55.6875 H 356.4 V -77.9625 H 415.8 V -44.55 H 475.2 V -44.55 H 534.6 V -66.825 H 594 V -66.825 H 653.4 V -55.6875 H 712.8 V -77.9625 H 772.1999999999999 V -44.55 H 831.6 V -33.4125 H 891 V -22.275 H 950.4 V -66.825 H 1009.8 V -44.55 H 1069.2 V -33.4125 H 1128.6 V -33.4125 H 1188 V 669.25 H 0 V -55.6875 Z" fill="#9498E9"/></g><g><path d="M 0 0V 22.275 H 59.4 V -22.275 H 118.8 V -33.4125 H 178.2 V 11.1375 H 237.6 V 22.275 H 297 V 0 H 356.4 V 33.4125 H 415.8 V 33.4125 H 475.2 V 33.4125 H 534.6 V 0 H 594 V -11.1375 H 653.4 V -33.4125 H 712.8 V 0 H 772.1999999999999 V 0 H 831.6 V 33.4125 H 891 V 11.1375 H 950.4 V 11.1375 H 1009.8 V 33.4125 H 1069.2 V 0 H 1128.6 V -33.4125 H 1188 V 669.25 H 0 V 0 Z" fill="#8b8fe0"/></g><g><path d="M 0 55.6875V 44.55 H 59.4 V 55.6875 H 118.8 V 77.9625 H 178.2 V 77.9625 H 237.6 V 66.825 H 297 V 77.9625 H 356.4 V 77.9625 H 415.8 V 77.9625 H 475.2 V 22.275 H 534.6 V 33.4125 H 594 V 22.275 H 653.4 V 55.6875 H 712.8 V 77.9625 H 772.1999999999999 V 44.55 H 831.6 V 66.825 H 891 V 77.9625 H 950.4 V 55.6875 H 1009.8 V 22.275 H 1069.2 V 44.55 H 1128.6 V 77.9625 H 1188 V 669.25 H 0 V 55.6875 Z" fill="#8286d7"/></g><g><path d="M 0 111.375V 77.9625 H 59.4 V 111.375 H 118.8 V 100.2375 H 178.2 V 133.65 H 237.6 V 111.375 H 297 V 122.5125 H 356.4 V 89.1 H 415.8 V 100.2375 H 475.2 V 111.375 H 534.6 V 111.375 H 594 V 133.65 H 653.4 V 133.65 H 712.8 V 122.5125 H 772.1999999999999 V 111.375 H 831.6 V 111.375 H 891 V 133.65 H 950.4 V 133.65 H 1009.8 V 144.7875 H 1069.2 V 122.5125 H 1128.6 V 133.65 H 1188 V 669.25 H 0 V 111.375 Z" fill="#797dce"/></g><g><path d="M 0 167.0625V 200.475 H 59.4 V 178.2 H 118.8 V 133.65 H 178.2 V 189.3375 H 237.6 V 167.0625 H 297 V 178.2 H 356.4 V 144.7875 H 415.8 V 167.0625 H 475.2 V 178.2 H 534.6 V 200.475 H 594 V 178.2 H 653.4 V 200.475 H 712.8 V 189.3375 H 772.1999999999999 V 155.925 H 831.6 V 155.925 H 891 V 144.7875 H 950.4 V 189.3375 H 1009.8 V 200.475 H 1069.2 V 178.2 H 1128.6 V 167.0625 H 1188 V 669.25 H 0 V 167.0625 Z" fill="#7074c5"/></g><g><path d="M 0 222.75V 222.75 H 59.4 V 245.025 H 118.8 V 233.8875 H 178.2 V 245.025 H 237.6 V 233.8875 H 297 V 222.75 H 356.4 V 245.025 H 415.8 V 222.75 H 475.2 V 233.8875 H 534.6 V 222.75 H 594 V 211.6125 H 653.4 V 256.1625 H 712.8 V 211.6125 H 772.1999999999999 V 233.8875 H 831.6 V 222.75 H 891 V 233.8875 H 950.4 V 233.8875 H 1009.8 V 245.025 H 1069.2 V 233.8875 H 1128.6 V 211.6125 H 1188 V 669.25 H 0 V 222.75 Z" fill="#676bbc"/></g><g><path d="M 0 278.4375V 300.7125 H 59.4 V 289.575 H 118.8 V 300.7125 H 178.2 V 311.85 H 237.6 V 278.4375 H 297 V 278.4375 H 356.4 V 311.85 H 415.8 V 300.7125 H 475.2 V 289.575 H 534.6 V 245.025 H 594 V 289.575 H 653.4 V 256.1625 H 712.8 V 300.7125 H 772.1999999999999 V 245.025 H 831.6 V 245.025 H 891 V 311.85 H 950.4 V 289.575 H 1009.8 V 245.025 H 1069.2 V 267.3 H 1128.6 V 311.85 H 1188 V 669.25 H 0 V 278.4375 Z" fill="#5e62b3"/></g><g><path d="M 0 334.125V 367.5375 H 59.4 V 367.5375 H 118.8 V 356.4 H 178.2 V 334.125 H 237.6 V 300.7125 H 297 V 300.7125 H 356.4 V 300.7125 H 415.8 V 334.125 H 475.2 V 367.5375 H 534.6 V 322.9875 H 594 V 322.9875 H 653.4 V 300.7125 H 712.8 V 356.4 H 772.1999999999999 V 334.125 H 831.6 V 345.2625 H 891 V 334.125 H 950.4 V 300.7125 H 1009.8 V 334.125 H 1069.2 V 311.85 H 1128.6 V 300.7125 H 1188 V 669.25 H 0 V 334.125 Z" fill="#5559aa"/></g><g><path d="M 0 389.8125V 412.0875 H 59.4 V 389.8125 H 118.8 V 356.4 H 178.2 V 378.675 H 237.6 V 389.8125 H 297 V 389.8125 H 356.4 V 389.8125 H 415.8 V 389.8125 H 475.2 V 423.225 H 534.6 V 423.225 H 594 V 400.95 H 653.4 V 400.95 H 712.8 V 378.675 H 772.1999999999999 V 400.95 H 831.6 V 367.5375 H 891 V 367.5375 H 950.4 V 389.8125 H 1009.8 V 412.0875 H 1069.2 V 367.5375 H 1128.6 V 400.95 H 1188 V 669.25 H 0 V 389.8125 Z" fill="#4c50a1"/></g><g><path d="M 0 445.5V 445.5 H 59.4 V 445.5 H 118.8 V 478.9125 H 178.2 V 456.6375 H 237.6 V 467.775 H 297 V 445.5 H 356.4 V 456.6375 H 415.8 V 467.775 H 475.2 V 478.9125 H 534.6 V 456.6375 H 594 V 456.6375 H 653.4 V 412.0875 H 712.8 V 445.5 H 772.1999999999999 V 478.9125 H 831.6 V 467.775 H 891 V 445.5 H 950.4 V 456.6375 H 1009.8 V 467.775 H 1069.2 V 478.9125 H 1128.6 V 423.225 H 1188 V 669.25 H 0 V 445.5 Z" fill="#434798"/></g><g><path d="M 0 501.1875V 501.1875 H 59.4 V 523.4625 H 118.8 V 534.6 H 178.2 V 534.6 H 237.6 V 534.6 H 297 V 534.6 H 356.4 V 501.1875 H 415.8 V 534.6 H 475.2 V 523.4625 H 534.6 V 512.325 H 594 V 501.1875 H 653.4 V 478.9125 H 712.8 V 478.9125 H 772.1999999999999 V 523.4625 H 831.6 V 512.325 H 891 V 523.4625 H 950.4 V 501.1875 H 1009.8 V 523.4625 H 1069.2 V 501.1875 H 1128.6 V 512.325 H 1188 V 669.25 H 0 V 501.1875 Z" fill="#3a3e8f"/></g><g><path d="M 0 556.875V 579.15 H 59.4 V 545.7375 H 118.8 V 523.4625 H 178.2 V 568.0125 H 237.6 V 534.6 H 297 V 590.2875 H 356.4 V 523.4625 H 415.8 V 590.2875 H 475.2 V 579.15 H 534.6 V 523.4625 H 594 V 568.0125 H 653.4 V 590.2875 H 712.8 V 545.7375 H 772.1999999999999 V 579.15 H 831.6 V 568.0125 H 891 V 523.4625 H 950.4 V 556.875 H 1009.8 V 579.15 H 1069.2 V 534.6 H 1128.6 V 568.0125 H 1188 V 669.25 H 0 V 556.875 Z" fill="#313586"/></g><g><path d="M 0 612.5625V 623.7 H 59.4 V 645.975 H 118.8 V 612.5625 H 178.2 V 601.425 H 237.6 V 612.5625 H 297 V 579.15 H 356.4 V 612.5625 H 415.8 V 612.5625 H 475.2 V 645.975 H 534.6 V 590.2875 H 594 V 601.425 H 653.4 V 612.5625 H 712.8 V 645.975 H 772.1999999999999 V 634.8375 H 831.6 V 612.5625 H 891 V 623.7 H 950.4 V 601.425 H 1009.8 V 623.7 H 1069.2 V 579.15 H 1128.6 V 590.2875 H 1188 V 669.25 H 0 V 612.5625 Z" fill="#282c7d"/></g></svg>